<svg id="Layer_1" data-name="Layer 1" xmlns="http://www.w3.org/2000/svg" viewBox="0 0 800 800"><defs><style>.cls-1{fill:#fff;}</style></defs><path class="cls-1" d="M677.68,770.15V18.9a.63.63,0,0,0-.62-.63H163.33a.63.63,0,0,0-.63.63V770.23a.63.63,0,0,0,1.18.3L179,742.39a.63.63,0,0,1,1.11,0l16,29.94a.63.63,0,0,0,1.11,0l16-29.94a.63.63,0,0,1,1.11,0l16,29.94a.63.63,0,0,0,1.11,0l16.06-29.94a.63.63,0,0,1,1.11,0l16,29.94a.63.63,0,0,0,1.11,0l16.05-29.94a.63.63,0,0,1,1.11,0l16.05,29.94a.63.63,0,0,0,1.11,0l16.05-29.94a.63.63,0,0,1,1.11,0l16.05,29.94a.63.63,0,0,0,1.11,0l16.05-29.94a.63.63,0,0,1,1.11,0l16.06,29.94a.63.63,0,0,0,1.11,0l16.05-29.94a.63.63,0,0,1,1.11,0l16.05,29.94a.63.63,0,0,0,1.11,0l16.05-29.94a.63.63,0,0,1,1.11,0l16.06,29.94a.63.63,0,0,0,1.11,0l16.05-29.94a.63.63,0,0,1,1.11,0l16.05,29.94a.63.63,0,0,0,1.11,0l16.06-29.94a.63.63,0,0,1,1.11,0l16.05,29.94a.63.63,0,0,0,1.11,0l16.05-29.94a.63.63,0,0,1,1.11,0l16,29.94a.63.63,0,0,0,1.11,0l16.06-29.94a.63.63,0,0,1,1.11,0l16.05,29.94a.63.63,0,0,0,1.11,0l16.05-29.94a.63.63,0,0,1,1.11,0L608,772.33a.63.63,0,0,0,1.11,0l16.05-29.94a.63.63,0,0,1,1.11,0l16.05,29.94a.63.63,0,0,0,1.11,0l16.07-30a.63.63,0,0,1,1.1,0l15.88,28.11A.62.62,0,0,0,677.68,770.15Z"/></svg>